<svg xmlns="http://www.w3.org/2000/svg" viewBox="0 0 1029 107.44"><defs><style>.cls-1{fill:#720000;}.cls-2{fill:#590000;}</style></defs><title>Asset 2</title><g id="Layer_2" data-name="Layer 2"><g id="Layer_1-2" data-name="Layer 1"><path class="cls-1" d="M65,100H62V0H0V100l4.35,1.78a73.58,73.58,0,0,0,55.81,0L64.5,100l7.57,2.75a73.28,73.28,0,0,0,56.74-2.67L129,100V0H65Z"/><rect class="cls-2" x="62" width="3" height="100"/><path class="cls-1" d="M194,100.07H191V.09H129.19v100l4.21,1.73a72.86,72.86,0,0,0,55.92,0l4.21-1.73,7.56,2.75a72.94,72.94,0,0,0,56.6-2.67l.19-.09V.09H194Z"/><rect class="cls-2" x="190.98" y="0.09" width="3.06" height="99.98"/><path class="cls-1" d="M322.74,100.07h-3.06V.09H257.88v100l4.21,1.73a72.86,72.86,0,0,0,55.92,0l4.21-1.73,7.56,2.75a72.94,72.94,0,0,0,56.6-2.67l.19-.09V.09H322.74Z"/><rect class="cls-2" x="319.67" y="0.09" width="3.06" height="99.98"/><path class="cls-1" d="M451.43,100.07h-3.06V.09H386.57v100l4.21,1.73a72.86,72.86,0,0,0,55.92,0l4.21-1.73,7.56,2.75a72.94,72.94,0,0,0,56.6-2.67l.19-.09V.09H451.43Z"/><rect class="cls-2" x="448.36" y="0.09" width="3.06" height="99.98"/><path class="cls-1" d="M580.12,100.07h-3.06V.09H515.26v100l4.21,1.73a72.86,72.86,0,0,0,55.92,0l4.21-1.73,7.56,2.75a72.94,72.94,0,0,0,56.6-2.67l.19-.09V.09H580.12Z"/><rect class="cls-2" x="577.05" y="0.09" width="3.06" height="99.98"/><path class="cls-1" d="M708.81,100.07h-3.06V.09H644v100l4.21,1.73a72.86,72.86,0,0,0,55.92,0l4.21-1.73,7.56,2.75a72.94,72.94,0,0,0,56.6-2.67l.19-.09V.09H708.81Z"/><rect class="cls-2" x="705.74" y="0.09" width="3.06" height="99.98"/><path class="cls-1" d="M837.5,100.07h-3.06V.09H772.64v100l4.21,1.73a72.86,72.86,0,0,0,55.92,0l4.21-1.73,7.56,2.75a72.94,72.94,0,0,0,56.6-2.67l.19-.09V.09H837.5Z"/><rect class="cls-2" x="834.43" y="0.09" width="3.06" height="99.98"/><path class="cls-1" d="M965.17,100.07H962.1V.09H900.31v100l4.21,1.73a72.86,72.86,0,0,0,55.92,0l4.21-1.73,7.56,2.75a72.94,72.94,0,0,0,56.6-2.67l.19-.09V.09H965.17Z"/><rect class="cls-2" x="962.1" y="0.09" width="3.06" height="99.98"/><rect class="cls-2" x="127.98" y="0.09" width="3.06" height="99.98"/><rect class="cls-2" x="255.98" y="0.09" width="3.06" height="99.98"/><rect class="cls-2" x="385.98" y="0.09" width="3.06" height="99.98"/><rect class="cls-2" x="510.98" y="0.09" width="3.06" height="99.98"/><rect class="cls-2" x="642.98" y="0.09" width="3.06" height="99.98"/><rect class="cls-2" x="770.98" y="0.09" width="3.06" height="99.98"/><rect class="cls-2" x="899.98" y="0.09" width="3.06" height="99.98"/></g></g></svg>